<svg xmlns="http://www.w3.org/2000/svg" width="30" height="40" viewBox="0 0 30 40" fill="none"><path d="M12.1421 23.4959L16.1485 25.809L8.01281 39.9006L5.67769 34.6927L12.1421 23.4959Z" fill="#418ED6"></path><path d="M12.1421 23.4959L8.13574 21.1828L0 35.2744L5.6777 34.6927L12.1421 23.4959Z" fill="#2B63A6"></path><path d="M17.8579 23.4959L13.8515 25.809L21.9872 39.9006L24.3223 34.6927L17.8579 23.4959Z" fill="#2B63A6"></path><path d="M17.8579 23.4959L21.8643 21.1828L30 35.2744L24.3223 34.6927L17.8579 23.4959Z" fill="#418ED6"></path><path d="M14.9935 27.5867C22.6114 27.5867 28.7869 21.4112 28.7869 13.7934C28.7869 6.17549 22.6114 0 14.9935 0C7.37569 0 1.2002 6.17549 1.2002 13.7934C1.2002 21.4112 7.37569 27.5867 14.9935 27.5867Z" fill="#E3E3E3"></path><path d="M14.9937 24.5601C20.9401 24.5601 25.7606 19.7396 25.7606 13.7932C25.7606 7.84683 20.9401 3.02631 14.9937 3.02631C9.04727 3.02631 4.22676 7.84683 4.22676 13.7932C4.22676 19.7396 9.04727 24.5601 14.9937 24.5601Z" fill="#595959"></path><mask id="mask0_16_101" style="mask-type:luminance" maskUnits="userSpaceOnUse" x="4" y="4" width="23" height="22"><path d="M15.5685 25.7347C21.5287 25.7347 26.3605 20.903 26.3605 14.9427C26.3605 8.98249 21.5287 4.15076 15.5685 4.15076C9.60825 4.15076 4.77652 8.98249 4.77652 14.9427C4.77652 20.903 9.60825 25.7347 15.5685 25.7347Z" fill="#C28B37"></path></mask><g mask="url(#mask0_16_101)"><path d="M14.9937 24.5853C20.9539 24.5853 25.7857 19.7536 25.7857 13.7934C25.7857 7.83311 20.9539 3.00138 14.9937 3.00138C9.03344 3.00138 4.20171 7.83311 4.20171 13.7934C4.20171 19.7536 9.03344 24.5853 14.9937 24.5853Z" fill="url(#paint0_linear_16_101)"></path></g><path d="M15.0518 6.2856L17.3797 10.9416L22.0357 11.5235L18.8386 15.1087L19.7078 20.2535L15.0518 17.9255L10.3958 20.2535L11.2727 15.1087L8.06783 11.5235L12.7238 10.9416L15.0518 6.2856Z" fill="url(#paint1_linear_16_101)"></path><defs><linearGradient id="paint0_linear_16_101" x1="14.9937" y1="3.00139" x2="14.9937" y2="24.5853" gradientUnits="userSpaceOnUse"><stop stop-color="#9CA1A3"></stop><stop offset="1" stop-color="#9CA1A3" stop-opacity="0"></stop></linearGradient><linearGradient id="paint1_linear_16_101" x1="15.0518" y1="6.2856" x2="15.0518" y2="20.2535" gradientUnits="userSpaceOnUse"><stop stop-color="#F1F5F5"></stop><stop offset="0.0001" stop-color="white"></stop><stop offset="1" stop-color="#F1F5F5"></stop></linearGradient></defs></svg>