<svg xmlns="http://www.w3.org/2000/svg" width="30" height="40" viewBox="0 0 30 40" fill="none"><path d="M12.1421 23.4961L16.1486 25.8092L8.01283 39.9006L5.6777 34.6927L12.1421 23.4961Z" fill="#CE4444"></path><path d="M12.1421 23.4961L8.13573 21.183L0 35.2744L5.67769 34.6927L12.1421 23.4961Z" fill="#983535"></path><path d="M17.8579 23.4961L13.8514 25.8092L21.9873 39.9006L24.3223 34.6927L17.8579 23.4961Z" fill="#983535"></path><path d="M17.8579 23.4961L21.8643 21.183L30 35.2744L24.3223 34.6927L17.8579 23.4961Z" fill="#CE4444"></path><path d="M28.6704 13.7935C28.6704 21.4113 22.495 27.5867 14.8771 27.5867C7.25931 27.5867 1.08386 21.4113 1.08386 13.7935C1.08386 6.17567 7.25931 0.000205994 14.8771 0.000205994C22.495 0.000205994 28.6704 6.17567 28.6704 13.7935Z" fill="url(#paint0_linear_16_210)"></path><path d="M25.6441 13.7934C25.6441 19.7398 20.8235 24.5604 14.8772 24.5604C8.93079 24.5604 4.11029 19.7398 4.11029 13.7934C4.11029 7.84705 8.93079 3.02656 14.8772 3.02656C20.8235 3.02656 25.6441 7.84705 25.6441 13.7934Z" fill="#A88300"></path><path d="M26.2441 14.9429C26.2441 20.9032 21.4124 25.7349 15.4522 25.7349C9.49195 25.7349 4.66022 20.9032 4.66022 14.9429C4.66022 8.98265 9.49195 4.15094 15.4522 4.15094C21.4124 4.15094 26.2441 8.98265 26.2441 14.9429Z" fill="#C28B37"></path><path d="M25.6694 13.7934C25.6694 19.7536 20.8377 24.5853 14.8775 24.5853C8.91724 24.5853 4.08551 19.7536 4.08551 13.7934C4.08551 7.83321 8.91724 3.00148 14.8775 3.00148C20.8377 3.00148 25.6694 7.83321 25.6694 13.7934Z" fill="#C09525"></path><path d="M14.9353 6.28571L17.2633 10.9417L21.9193 11.5237L18.7221 15.1087L19.5914 20.2535L14.9353 17.9256L10.2794 20.2535L11.1563 15.1087L7.95142 11.5237L12.6074 10.9417L14.9353 6.28571Z" fill="url(#paint1_linear_16_210)"></path><defs><linearGradient id="paint0_linear_16_210" x1="13.9407" y1="5.02756" x2="15.8122" y2="39.857" gradientUnits="userSpaceOnUse"><stop stop-color="#FFC600"></stop><stop offset="1" stop-color="#FFDE69"></stop></linearGradient><linearGradient id="paint1_linear_16_210" x1="14.9356" y1="6.28571" x2="14.9356" y2="20.2535" gradientUnits="userSpaceOnUse"><stop stop-color="#FFFCDD"></stop><stop offset="1" stop-color="#FFE896"></stop></linearGradient></defs></svg>