<svg xmlns="http://www.w3.org/2000/svg" width="30" height="40" viewBox="0 0 30 40" fill="none"><path d="M12.1421 23.4959L16.1485 25.809L8.01282 39.9006L5.6777 34.6927L12.1421 23.4959Z" fill="#AA75CB"></path><path d="M12.1421 23.4959L8.13574 21.1828L0 35.2744L5.6777 34.6927L12.1421 23.4959Z" fill="#73488D"></path><path d="M17.8579 23.4959L13.8515 25.809L21.9872 39.9006L24.3223 34.6927L17.8579 23.4959Z" fill="#73488D"></path><path d="M17.8579 23.4959L21.8643 21.1828L30 35.2744L24.3223 34.6927L17.8579 23.4959Z" fill="#AA75CB"></path><path d="M14.9936 27.5867C22.6114 27.5867 28.7869 21.4112 28.7869 13.7934C28.7869 6.1755 22.6114 7.62939e-06 14.9936 7.62939e-06C7.37569 7.62939e-06 1.2002 6.1755 1.2002 13.7934C1.2002 21.4112 7.37569 27.5867 14.9936 27.5867Z" fill="#DC9E42"></path><path d="M14.9937 24.5601C20.9401 24.5601 25.7606 19.7396 25.7606 13.7932C25.7606 7.84684 20.9401 3.02633 14.9937 3.02633C9.04728 3.02633 4.22677 7.84684 4.22677 13.7932C4.22677 19.7396 9.04728 24.5601 14.9937 24.5601Z" fill="#734C12"></path><mask id="mask0_16_128" style="mask-type:luminance" maskUnits="userSpaceOnUse" x="4" y="4" width="23" height="22"><path d="M15.5685 25.7347C21.5287 25.7347 26.3605 20.903 26.3605 14.9427C26.3605 8.9825 21.5287 4.15076 15.5685 4.15076C9.60825 4.15076 4.77652 8.9825 4.77652 14.9427C4.77652 20.903 9.60825 25.7347 15.5685 25.7347Z" fill="#C28B37"></path></mask><g mask="url(#mask0_16_128)"><path d="M14.9937 24.5853C20.9539 24.5853 25.7857 19.7536 25.7857 13.7934C25.7857 7.83312 20.9539 3.00138 14.9937 3.00138C9.03344 3.00138 4.20171 7.83312 4.20171 13.7934C4.20171 19.7536 9.03344 24.5853 14.9937 24.5853Z" fill="#A36D1D"></path></g><path d="M15.0518 6.2856L17.3797 10.9416L22.0357 11.5236L18.8386 15.1087L19.7078 20.2535L15.0518 17.9255L10.3958 20.2535L11.2727 15.1087L8.06784 11.5236L12.7238 10.9416L15.0518 6.2856Z" fill="url(#paint0_linear_16_128)"></path><defs><linearGradient id="paint0_linear_16_128" x1="15.0518" y1="6.2856" x2="15.0518" y2="20.2535" gradientUnits="userSpaceOnUse"><stop stop-color="#FCFF80"></stop><stop offset="0.401042" stop-color="#FDE870"></stop><stop offset="1" stop-color="#FFC759"></stop></linearGradient></defs></svg>